<?xml version="1.0" encoding="utf-8"?>
<!-- Generator: Adobe Illustrator 24.1.2, SVG Export Plug-In . SVG Version: 6.00 Build 0)  -->
<svg version="1.1" id="a1f75fc3-9e42-4fc1-bde4-b430080f0daf"
	 xmlns="http://www.w3.org/2000/svg" xmlns:xlink="http://www.w3.org/1999/xlink" x="0px" y="0px" viewBox="0 0 672.6 710.5"
	 style="enable-background:new 0 0 672.6 710.5;" xml:space="preserve">
<style type="text/css">
	.st0{fill:#FFFFFF;}
	.st1{fill:#CC9764;}
	.st2{fill:#30360F;}
	.st3{fill:#639255;}
	.st4{fill:#934F28;}
	.st5{fill:#CB401B;}
</style>
<path class="st0" d="M685.2,267.9c0.2,0,0.3-0.1,0.5-0.1c-0.1-0.3-0.2-0.6-0.3-1c-0.2,0.3-0.5,0.7-0.7,1L685.2,267.9z"/>
<path class="st1" d="M53.2,404.9c0.4,16.4,3.2,32.7,8.2,48.4c0.1,0.4,0.2,0.7,0.4,1.1h30.5c0-0.3-0.1-0.7-0.1-1.1
	c-2-23.4-13.8-165.9,0.3-190.2C91.2,265,50.9,330.5,53.2,404.9z"/>
<path class="st1" d="M50.2,466c0.3,0.4,0.5,0.7,0.8,1.1h22.9c-0.2-0.3-0.4-0.7-0.6-1.1c-3.8-6.8-15-27.2-25.4-48.4
	c-11.2-22.7-21.4-46.4-20.6-54.9C27.1,364.6,19.4,423.3,50.2,466z"/>
<path class="st1" d="M430.7,435.9c-2,14.2-6.1,28-11.9,41.1c-0.1,0.3-0.3,0.6-0.4,0.9l-26.4-3.1c0-0.3,0.2-0.6,0.2-0.9
	c4.1-20.1,28.5-142.3,18.8-164.7C411.8,311,440.2,371.8,430.7,435.9z"/>
<path class="st1" d="M429.5,483.6c-0.2,0.3-0.5,0.6-0.7,0.9l-20-0.1c0.2-0.3,0.3-0.6,0.5-0.9c3.3-6,13.2-23.7,22.3-42.1
	c9.8-19.7,18.9-40.3,18.2-47.8C450.1,395.3,456.6,446.5,429.5,483.6z"/>
<path class="st2" d="M672.2,361.9c0,8.2-0.3,16.4-0.9,24.5c-4.4,63.8-26.6,125.2-63.9,177.1c-4.9,6.8-10,13.4-15.4,19.9
	c-13.9,16.7-29.4,32-46.2,45.8L472.3,586l-44-102.7c0,0,65.6-132.9,243.8-130.5C672.2,355.9,672.2,358.9,672.2,361.9z"/>
<path class="st3" d="M671.3,386.4c-6.8,96.5-53.7,185.6-129.3,246l-68.3-40.1l-39-91.1C434.7,501.2,497.9,373.2,671.3,386.4z"/>
<path class="st2" d="M607.4,563.5c-4.9,6.8-10,13.4-15.4,19.9c-36,43.2-82,77.1-134,98.5c-10.5,4.3-21.3,8.2-32.3,11.5
	c-79.6,21.2-164,15.8-240.2-15.3C110,644.5,49.1,585,13.5,510.4c-4.8-10-9.1-20.3-12.9-30.9c66.6-48.7,197.6-118.5,340.5-50.7
	c39.5,18.8,74.8,35.9,105.9,51.3C525.8,519.1,578.2,547.3,607.4,563.5z"/>
<path class="st3" d="M592,583.4c-122.5,146.8-340.9,166.6-487.7,44c-38.4-32-69.3-71.9-90.8-117c55.6-43.9,183.7-122.9,324.3-56.2
	c36.2,17.2,68.5,32.8,96.9,46.9C517.5,542.2,568.5,570.1,592,583.4z"/>
<path class="st2" d="M494,664.6c-11.6,6.4-23.6,12.2-35.9,17.3c-41.8,17.2-86.7,26.1-131.9,26c-108.5,0-210.8-51-276.2-137.6
	C132.6,561.6,361,549.9,494,664.6z"/>
<path class="st3" d="M458.1,681.9c-132.8,54.6-285.6,21.6-384-82.9C104.2,594.6,340.2,564.2,458.1,681.9z"/>
<path class="st1" d="M615.2,166.5L615.2,166.5c-249.5-179.4-530.9-47.1-533.1-46l0,0C146,54.8,233.5,17.3,325.1,16.2
	C445.2,14.5,551.8,74.4,615.2,166.5z"/>
<ellipse transform="matrix(0.9841 -0.1774 0.1774 0.9841 -39.2949 34.5893)" class="st3" cx="173.8" cy="237" rx="76.9" ry="156.9"/>
<path class="st4" d="M210.2,491c-2.5-187.3-65.2-363.1-65.8-364.9l-5.7,2.1c0.6,1.7,63,176.6,65.4,362.9L210.2,491z"/>
<rect x="131" y="193.6" transform="matrix(0.3077 -0.9515 0.9515 0.3077 -127.4771 287.7032)" class="st4" width="5.8" height="75.6"/>
<rect x="171.6" y="233.1" transform="matrix(0.7839 -0.6208 0.6208 0.7839 -101.0391 182.0516)" class="st4" width="78.9" height="6.1"/>
<ellipse class="st3" cx="347.4" cy="188.8" rx="83.2" ry="169.8"/>
<path class="st4" d="M339.7,466.7c33.3-200,0.3-399.2,0-401.2l-6.5,1.1c0.3,2,33.1,200.2,0,399L339.7,466.7z"/>
<rect x="306.9" y="132.6" transform="matrix(0.4717 -0.8818 0.8818 0.4717 9.306 366.1056)" class="st4" width="6.6" height="85.3"/>
<rect x="347" y="192.2" transform="matrix(0.8816 -0.4719 0.4719 0.8816 -46.1356 207.0152)" class="st4" width="85.3" height="6.6"/>
<ellipse transform="matrix(0.7071 -0.7071 0.7071 0.7071 -19.4982 459.9578)" class="st5" cx="545.5" cy="253.5" rx="75.4" ry="75.4"/>
</svg>
